<svg width="91" height="122" viewBox="0 0 91 122" fill="none" xmlns="http://www.w3.org/2000/svg">
<g clip-path="url(#clip0_1362_413)">
<path d="M-312.01 -2.21997C-328.21 -2.21997 -341.39 1.08002 -353.39 10.49C-366.91 21.06 -376.47 40.28 -376.47 61.19C-376.46 72.05 -375.12 77.17 -372.45 84.81C-369.75 92.43 -365.76 99.22 -360.38 105.22C-349.45 117.41 -334.79 124.35 -314.61 124.35C-298.18 124.35 -285.12 117.83 -275.42 107.15C-266.99 97.9301 -260.04 86.18 -257.51 73.67C-256.86 70.54 -258.09 67.36 -262.16 66.11C-264.3 65.41 -293.68 52.85 -295.82 52.18C-297.99 51.5 -300.34 52.85 -301.46 54.99C-302.95 57.84 -307.98 67.05 -309.5 70.08C-310.58 72.2 -309.79 74.1 -307.72 74.84C-305.12 75.71 -291.53 81.2 -291.53 81.2C-294.6 91.36 -304.27 95.85 -312 95.85C-322.76 95.85 -333.02 91.66 -338.99 80.17C-341.7 74.95 -343.08 68.62 -343.08 61.18C-343.08 53.74 -341.71 47.52 -339.02 42.3C-332.71 30.23 -319.09 26.64 -309.76 26.64C-304.77 26.64 -294.74 28.6 -289.18 32.51C-287.15 33.93 -284.19 34.07 -282.6 31.92C-279.49 27.71 -275.01 21.7 -272.08 17.75C-269.96 14.96 -270.95 12.74 -272.87 11.09C-279.96 4.89003 -295.49 -2.17998 -312 -2.22998M-206.62 -1.65997C-213.47 -1.65997 -219.52 -0.699976 -224.82 1.15002C-230.09 3.01002 -234.55 5.61003 -238.14 9.00003C-241.73 12.38 -244.84 16.21 -246.6 20.59C-248.35 24.96 -249.48 29.6 -249.48 34.53C-249.48 52.85 -240.15 61.75 -224.86 67.85C-221.67 69.12 -206.46 74.25 -204.35 75.24C-196.04 79.22 -195.14 85.85 -197.66 90.66C-200.05 95.19 -205.19 96.9301 -211 96.5301C-221.77 95.7501 -228.64 92.75 -236.96 85.95C-239.13 84.13 -241.95 84.81 -242.8 86.94C-244.68 91.75 -248.67 100.67 -254.01 106.58C-245.7 114.49 -227.41 124.66 -210.5 124.66C-189.5 124.66 -173.66 117.36 -166.81 98.31C-160.71 81.41 -164.82 58.31 -191.04 49.95C-192.77 49.42 -210.72 43.14 -213.02 41.67C-215.3 40.22 -216.41 38 -216.41 35C-216.41 32.36 -215.46 30 -213.51 27.91C-211.61 25.81 -208.41 24.75 -203.91 24.75C-198.92 24.75 -192.5 27.37 -186.95 31.29C-184.94 32.72 -182.27 32.3 -180.7 30.18C-177.59 25.96 -173.94 19.79 -170.96 15.86C-168.88 13.03 -169.67 10.55 -171.77 9.17004C-175.69 6.57004 -180.55 3.89002 -185.3 2.08002C-191.4 -0.259983 -198.45 -1.65997 -206.63 -1.65997M-144.35 0.740021C-147.33 0.740021 -149.79 3.17004 -149.79 6.17004V117.1C-149.79 120.1 -147.33 122.54 -144.35 122.54H-121.79C-118.8 122.54 -116.33 120.11 -116.33 117.1V49.28C-116.33 46.3 -115.03 51.15 -113.48 53.72C-113.48 53.72 -83.45 102.53 -82.17 104.45C-80.93 106.33 -77.42 106.52 -76.03 104.41C-74.45 101.95 -44.77 53.72 -44.77 53.72C-43.19 51.15 -41.91 46.29 -41.91 49.28V111.59C-41.91 115.09 -37.09 116.04 -35.1 113.48C-31.9 109.4 -30.5 70.08 -30.5 70.08C-28.63 67.74 -53.01 31.11 -30.5 41.67L-44.77 26.64C-71.88 29.6501 -47.77 17.75 -13.41 0.730042H-39.42C-42.44 0.730042 -46.17 2.83003 -47.77 5.37003L-79.14 55.95L-110.54 5.37003C-112.1 2.83003 -115.84 0.730042 -118.87 0.730042H-144.37L-144.35 0.740021ZM22.13 89.34C20.16 89.06 18.2 89.8 16.78 91.58C16.78 91.58 3.33 113.51 1.34 116.5C-0.680004 119.46 1.43001 121.58 4.07001 121.58H86.57C89.81 121.58 91.09 118.21 87.67 116.5C83.11 114.21 24.08 89.96 24.08 89.96C23.44 89.64 22.78 89.44 22.12 89.34" fill="#8D0000"/>
<path d="M258.44 -2.12C251.62 -2.18 244.13 -1.13001 235.89 1.70999C224.41 5.71999 215.03 13.17 208.46 23.23C201.7 33.65 197.91 46.81 197.87 61.89C197.87 82.82 207.45 101.71 220.97 112.29C232.96 121.69 244.7 124.42 260.91 124.33C277.42 124.31 292.95 116.58 300.04 110.38C301.94 108.75 302.95 106.53 300.81 103.72C297.91 99.77 293.41 93.58 290.3 89.4C288.72 87.23 285.76 87.39 283.73 88.81C278.17 92.7 268.14 95.82 263.15 95.82C254.76 95.82 244.69 93.19 239.24 84.97C265.99 73.62 309.95 55.49 311.87 54.89C315.96 53.61 317.19 50.43 316.55 47.27C314.64 38.41 310.66 29.38 304.94 21.51C297.94 11.89 288.35 4.05 276.96 0.720001C271.41 -0.899999 265.26 -2.08001 258.44 -2.14001M169.72 -1.26001C158.83 -1.24001 149.03 3.16 142.9 10.03H141.99C141.99 10.03 140.82 7.47001 139.76 5.10001C138.44 2.16001 136.46 0.730011 132.66 0.730011H118.93C115.67 0.730011 112.68 2.45999 112.68 7.04999V115.42C112.68 118.45 115.08 121.61 118.84 121.61H140.68C144.34 121.61 146.93 118.33 146.93 115.04C146.9 100.47 146.86 59.77 146.86 51.01C146.86 36.82 153.73 25.61 166.26 25.61C171.25 25.61 176.52 27.54 182.08 31.43C184.1 32.82 187.08 32.98 188.67 30.86C191.78 26.64 196.42 19.34 199.36 15.41C201.45 12.58 200.68 10.12 198.57 8.72C194.63 6.1 189.82 3.43 185.01 1.59C179.86 -0.390004 174.68 -1.27999 169.73 -1.26999M504.88 -1.25C488 -1.21 474.62 4.20999 465.93 9.07999C463.27 10.63 462.96 13.61 464.19 15.77C465.77 18.49 471.84 27.27 473.66 29.84C475.48 32.49 476.77 32.88 479.77 31.3C484.91 28.6 494.46 24.9 502.59 25.3C512.02 25.72 518.99 30.08 521.04 36.25C505.89 40.58 487.97 46.63 476.48 51.33C460.97 57.65 450.6 68.99 450.6 87.03C450.6 108.33 466.8 123.64 488.65 123.64C501.35 123.64 511.3 121.68 524.01 113.67H525.72C525.72 113.67 526.87 116.21 527.51 118C528.18 119.81 529.21 121.87 533.61 121.87H551.57C555.05 121.87 557.6 120.41 557.6 116.26C557.6 112.11 557.53 49.2 557.53 49.2C557.53 24.46 542.12 -1.36 504.89 -1.25M45.47 0.700012C41.1 0.700012 37.96 2.11001 35.19 5.95001L5.7 53.57C4.02 55.87 5.00001 58.53 7.39001 59.53C12.3 61.61 21.33 64.45 25.93 66.52C29.54 68.17 31.76 67.55 33.75 64.6L54.36 31.83L56.83 31.81V69.1C56.83 73.76 58.7 75.54 61.59 76.86C64.5 78.1 82.46 85.79 85.21 86.79C88.45 88.03 90.97 86.54 90.97 83.11V7.19C90.97 3.63 88.03 0.700012 84.48 0.700012H45.49H45.47ZM333.34 0.700012C328.32 0.700012 326.41 2.4 326.41 6.88V115.42C326.41 119.71 328.32 121.67 332.08 121.67H357.12C359.81 121.67 361.92 118.63 361.92 115.42V47.87C361.92 38.89 367.24 29.41 379.45 28.67C392.72 27.91 398.08 33.79 398.08 46.31V113.1C398.08 117.93 400.96 121.67 406.35 121.67H426.39C431.81 121.67 434.45 117.9 434.45 113.72V44.01C434.45 27.55 427.37 11.91 411.28 5.04001C392.98 -2.67999 370.66 0.93 360.33 8.25H359.43C359.43 8.25 357.11 5.82 355.9 4.31C354.69 2.83 352.05 0.700012 347.39 0.700012H333.32H333.34ZM259.29 27.16C269.15 27.34 278.72 32 281.37 39.22C281.37 39.22 242.45 55.16 231.47 59.19C228.64 45.93 238.14 32.29 249.57 28.56C252.68 27.55 256.01 27.11 259.29 27.16ZM522.54 61.98V76.1C522.54 86.43 518.43 93.02 503.47 95.86C493.91 97.7 488.44 94.87 485.62 89.05C483.15 83.92 484.39 76.8 492.17 73.59C501.76 69.67 509.87 67.07 522.54 61.98Z" fill="white"/>
</g>
<defs>
<clipPath id="clip0_1362_413">
<rect width="91" height="122" fill="white"/>
</clipPath>
</defs>
</svg>
